<?xml version="1.0" encoding="utf-8"?>
<!-- Generator: Adobe Illustrator 16.0.0, SVG Export Plug-In . SVG Version: 6.00 Build 0)  -->
<!DOCTYPE svg PUBLIC "-//W3C//DTD SVG 1.1//EN" "http://www.w3.org/Graphics/SVG/1.1/DTD/svg11.dtd">
<svg version="1.1" id="Layer_1" xmlns="http://www.w3.org/2000/svg" xmlns:xlink="http://www.w3.org/1999/xlink" x="0px" y="0px"
	 width="425.73px" height="157.396px" viewBox="0 0 425.73 157.396" enable-background="new 0 0 425.73 157.396"
	 xml:space="preserve">
<g>
	<path fill="#353535" d="M42.485,79.562l27.49,39.985H44.151L27.907,95.25l-6.803,7.358v16.938H0V19.027h21.104v54.703
		l20.965-23.186H69.42L42.485,79.562z"/>
	<path fill="#353535" d="M71.641,119.547V19.027h21.104v100.52H71.641z"/>
	<path fill="#353535" d="M165.774,99.692c-3.332,11.94-14.3,21.938-31.794,21.938c-19.021,0-35.96-13.606-35.96-36.793
		c0-22.214,16.522-36.376,34.433-36.376c21.381,0,34.571,13.189,34.571,35.404c0,2.915-0.278,6.108-0.417,6.525h-48.038
		c0.416,7.775,7.497,13.328,15.688,13.328c7.637,0,11.94-3.609,13.884-9.024L165.774,99.692z M146.614,76.784
		c-0.277-5.275-3.887-11.662-13.884-11.662c-8.886,0-13.328,6.525-13.745,11.662H146.614z"/>
	<path fill="#353535" d="M188.544,79.7l16.244-2.499c3.748-0.556,4.998-2.36,4.998-4.721c0-4.026-3.471-7.498-10.136-7.498
		c-7.358,0-11.385,4.999-11.801,10.136l-18.327-3.749c0.833-9.857,9.996-22.908,30.268-22.908c22.353,0,30.544,12.495,30.544,26.657
		v33.738c0,5.414,0.694,9.996,0.833,10.69h-19.021c-0.139-0.556-0.694-3.055-0.694-7.775c-3.609,5.832-10.274,9.719-19.438,9.719
		c-15.134,0-23.881-9.996-23.881-20.965C168.134,88.308,177.16,81.366,188.544,79.7z M209.787,92.473v-3.054l-13.051,2.082
		c-4.443,0.694-7.775,2.777-7.775,7.637c0,3.609,2.36,7.08,8.191,7.08C203.4,106.218,209.787,103.164,209.787,92.473z"/>
	<path fill="#353535" d="M260.879,119.547h-21.104V50.544h20.409v7.913c3.748-6.525,12.218-9.719,19.299-9.719
		c17.354,0,25.13,12.357,25.13,27.49v43.318H283.51V79.839c0-6.804-3.61-11.94-11.246-11.94c-6.942,0-11.385,5.137-11.385,12.079
		V119.547z"/>
	<path fill="#1976D2" d="M324.976,0c8.1,0,14.579,6.479,14.579,14.417s-6.479,14.417-14.579,14.417
		c-7.775,0-14.255-6.479-14.255-14.417S317.201,0,324.976,0z M312.828,119.547V39.039h24.622v80.508H312.828z"/>
	<path fill="#1976D2" d="M425.73,79.212c0,24.946-18.629,42.765-42.765,42.765c-23.974,0-42.765-17.818-42.765-42.765
		s18.791-42.603,42.765-42.603C407.101,36.609,425.73,54.266,425.73,79.212z M401.108,79.212c0-13.606-8.747-19.924-18.143-19.924
		c-9.233,0-18.143,6.317-18.143,19.924c0,13.445,8.909,20.087,18.143,20.087C392.361,99.299,401.108,92.819,401.108,79.212z"/>
</g>
<g>
	<path fill="#3A3A3A" d="M17.522,136.43c-0.48-0.606-1.132-1.055-1.953-1.346c-0.821-0.29-1.599-0.436-2.331-0.436
		c-0.431,0-0.872,0.051-1.327,0.151c-0.455,0.102-0.885,0.26-1.289,0.474c-0.404,0.215-0.733,0.5-0.985,0.854
		c-0.253,0.354-0.38,0.783-0.38,1.289c0,0.809,0.304,1.428,0.91,1.857s1.371,0.796,2.294,1.1c0.922,0.303,1.914,0.606,2.976,0.909
		c1.062,0.304,2.054,0.733,2.977,1.289c0.922,0.557,1.687,1.303,2.294,2.237c0.606,0.936,0.909,2.187,0.909,3.753
		c0,1.492-0.278,2.793-0.834,3.905s-1.308,2.035-2.256,2.768c-0.947,0.733-2.047,1.276-3.298,1.63s-2.572,0.531-3.962,0.531
		c-1.744,0-3.361-0.266-4.853-0.796c-1.492-0.531-2.882-1.391-4.171-2.578l4.209-4.626c0.606,0.81,1.37,1.436,2.293,1.877
		c0.923,0.442,1.877,0.663,2.862,0.663c0.48,0,0.967-0.057,1.46-0.17c0.493-0.114,0.935-0.284,1.327-0.512
		c0.392-0.228,0.707-0.519,0.947-0.872s0.36-0.771,0.36-1.251c0-0.809-0.31-1.447-0.929-1.915c-0.619-0.467-1.396-0.865-2.332-1.194
		c-0.935-0.328-1.946-0.656-3.032-0.985c-1.087-0.328-2.099-0.771-3.033-1.327c-0.936-0.556-1.713-1.289-2.332-2.199
		c-0.619-0.909-0.929-2.109-0.929-3.602c0-1.44,0.284-2.704,0.854-3.791c0.568-1.086,1.327-1.996,2.274-2.729
		c0.948-0.732,2.041-1.282,3.279-1.649c1.238-0.366,2.515-0.55,3.829-0.55c1.517,0,2.982,0.216,4.398,0.645
		c1.415,0.431,2.691,1.15,3.829,2.161L17.522,136.43z"/>
	<path fill="#3A3A3A" d="M28.136,129.871h18.236v5.459H34.051v5.005H45.69v5.459H34.051v5.46h13.003v5.459H28.136V129.871z"/>
	<path fill="#3A3A3A" d="M53.689,129.871h10.388c1.365,0,2.66,0.133,3.886,0.398c1.226,0.265,2.3,0.708,3.223,1.327
		s1.655,1.453,2.199,2.502c0.543,1.049,0.815,2.356,0.815,3.924c0,1.896-0.493,3.507-1.479,4.834
		c-0.986,1.326-2.427,2.167-4.322,2.521l6.824,11.336h-7.09l-5.611-10.729h-2.919v10.729h-5.914V129.871z M59.603,140.979h3.488
		c0.53,0,1.093-0.019,1.687-0.057s1.131-0.152,1.611-0.342s0.878-0.486,1.194-0.891c0.315-0.404,0.474-0.973,0.474-1.706
		c0-0.683-0.139-1.226-0.417-1.63s-0.632-0.714-1.062-0.929s-0.923-0.36-1.479-0.437s-1.1-0.113-1.63-0.113h-3.867V140.979z"/>
	<path fill="#3A3A3A" d="M77.498,129.871h6.748l6.635,17.591h0.076l6.748-17.591h6.331l-11.07,26.842h-4.739L77.498,129.871z"/>
	<path fill="#3A3A3A" d="M108.661,129.871h5.914v26.842h-5.914V129.871z"/>
	<path fill="#3A3A3A" d="M139.407,136.847c-0.581-0.707-1.295-1.251-2.142-1.63s-1.826-0.568-2.938-0.568s-2.142,0.215-3.09,0.645
		c-0.947,0.43-1.77,1.03-2.464,1.801c-0.695,0.771-1.238,1.687-1.63,2.748c-0.393,1.062-0.588,2.212-0.588,3.45
		c0,1.265,0.195,2.421,0.588,3.469c0.392,1.05,0.929,1.959,1.611,2.729c0.682,0.771,1.484,1.372,2.407,1.801
		c0.922,0.431,1.914,0.645,2.976,0.645c1.214,0,2.287-0.252,3.223-0.758c0.935-0.505,1.706-1.213,2.312-2.123l4.929,3.678
		c-1.138,1.592-2.578,2.768-4.322,3.525c-1.743,0.759-3.538,1.138-5.383,1.138c-2.099,0-4.032-0.329-5.801-0.986
		c-1.77-0.656-3.299-1.598-4.588-2.824c-1.288-1.226-2.293-2.711-3.014-4.454c-0.72-1.744-1.08-3.69-1.08-5.839
		c0-2.147,0.36-4.095,1.08-5.839c0.721-1.743,1.726-3.228,3.014-4.454c1.289-1.226,2.818-2.167,4.588-2.824
		c1.769-0.657,3.702-0.986,5.801-0.986c0.758,0,1.548,0.07,2.369,0.209s1.63,0.36,2.427,0.663c0.796,0.304,1.56,0.708,2.293,1.214
		s1.39,1.124,1.972,1.857L139.407,136.847z"/>
	<path fill="#3A3A3A" d="M149.947,129.871h18.235v5.459h-12.321v5.005H167.5v5.459h-11.639v5.46h13.004v5.459h-18.918V129.871z"/>
	<path fill="#3A3A3A" d="M188.616,129.871h9.971c1.39,0,2.704,0.127,3.943,0.379c1.237,0.253,2.318,0.689,3.241,1.309
		c0.922,0.619,1.655,1.453,2.198,2.502c0.544,1.049,0.815,2.369,0.815,3.962c0,1.567-0.253,2.881-0.758,3.942
		c-0.506,1.062-1.201,1.909-2.085,2.54c-0.886,0.633-1.934,1.081-3.147,1.347c-1.213,0.265-2.527,0.397-3.942,0.397h-4.322v10.464
		h-5.914V129.871z M194.53,141.245h3.943c0.53,0,1.042-0.051,1.535-0.152c0.493-0.101,0.935-0.271,1.327-0.512
		c0.392-0.239,0.707-0.568,0.947-0.985s0.36-0.941,0.36-1.573c0-0.683-0.158-1.232-0.474-1.649
		c-0.316-0.417-0.721-0.739-1.214-0.967c-0.492-0.228-1.042-0.372-1.648-0.436s-1.188-0.095-1.744-0.095h-3.033V141.245z"/>
	<path fill="#3A3A3A" d="M214.396,129.871h10.387c1.365,0,2.66,0.133,3.887,0.398c1.227,0.265,2.299,0.708,3.223,1.327
		c0.922,0.619,1.654,1.453,2.199,2.502c0.543,1.049,0.814,2.356,0.814,3.924c0,1.896-0.492,3.507-1.479,4.834
		c-0.986,1.326-2.426,2.167-4.322,2.521l6.824,11.336h-7.09l-5.609-10.729h-2.92v10.729h-5.914V129.871z M220.31,140.979h3.488
		c0.531,0,1.092-0.019,1.688-0.057c0.592-0.038,1.131-0.152,1.611-0.342c0.479-0.189,0.877-0.486,1.193-0.891
		s0.475-0.973,0.475-1.706c0-0.683-0.141-1.226-0.418-1.63s-0.633-0.714-1.061-0.929c-0.432-0.215-0.924-0.36-1.479-0.437
		c-0.557-0.076-1.1-0.113-1.631-0.113h-3.867V140.979z"/>
	<path fill="#3A3A3A" d="M239.417,143.292c0-2.147,0.36-4.095,1.08-5.839c0.721-1.743,1.726-3.228,3.015-4.454
		c1.289-1.226,2.817-2.167,4.587-2.824c1.769-0.657,3.702-0.986,5.801-0.986c2.098,0,4.031,0.329,5.801,0.986
		c1.769,0.657,3.298,1.599,4.587,2.824c1.289,1.227,2.294,2.711,3.014,4.454c0.721,1.744,1.081,3.691,1.081,5.839
		c0,2.148-0.36,4.095-1.081,5.839c-0.72,1.743-1.725,3.229-3.014,4.454c-1.289,1.227-2.818,2.168-4.587,2.824
		c-1.77,0.657-3.703,0.986-5.801,0.986c-2.099,0-4.032-0.329-5.801-0.986c-1.77-0.656-3.298-1.598-4.587-2.824
		c-1.289-1.226-2.294-2.711-3.015-4.454C239.778,147.387,239.417,145.44,239.417,143.292z M245.559,143.292
		c0,1.265,0.195,2.421,0.588,3.469c0.392,1.05,0.953,1.959,1.687,2.729c0.733,0.771,1.611,1.372,2.636,1.801
		c1.023,0.431,2.166,0.645,3.431,0.645c1.264,0,2.407-0.214,3.431-0.645c1.023-0.429,1.901-1.029,2.635-1.801
		c0.733-0.771,1.295-1.68,1.688-2.729c0.392-1.048,0.588-2.204,0.588-3.469c0-1.238-0.196-2.389-0.588-3.45
		c-0.393-1.062-0.954-1.978-1.688-2.748s-1.611-1.371-2.635-1.801s-2.167-0.645-3.431-0.645c-1.265,0-2.407,0.215-3.431,0.645
		c-1.024,0.43-1.902,1.03-2.636,1.801s-1.295,1.687-1.687,2.748C245.754,140.903,245.559,142.054,245.559,143.292z"/>
	<path fill="#3A3A3A" d="M271.642,129.871h6.748l6.635,17.591h0.075l6.749-17.591h6.331l-11.07,26.842h-4.739L271.642,129.871z"/>
	<path fill="#3A3A3A" d="M302.806,129.871h5.914v26.842h-5.914V129.871z"/>
	<path fill="#3A3A3A" d="M315.999,129.871h8.871c2.148,0,4.189,0.24,6.123,0.721s3.621,1.258,5.062,2.331
		c1.44,1.075,2.584,2.471,3.431,4.189s1.271,3.805,1.271,6.256c0,2.174-0.411,4.088-1.232,5.743
		c-0.821,1.656-1.928,3.046-3.317,4.171s-2.995,1.978-4.814,2.559c-1.82,0.582-3.729,0.872-5.725,0.872h-9.668V129.871z
		 M321.913,151.254h3.071c1.365,0,2.635-0.139,3.811-0.417c1.175-0.278,2.192-0.739,3.052-1.384c0.858-0.645,1.535-1.491,2.028-2.54
		c0.492-1.049,0.739-2.332,0.739-3.849c0-1.313-0.247-2.458-0.739-3.431c-0.493-0.973-1.156-1.775-1.99-2.407
		c-0.835-0.632-1.814-1.105-2.938-1.422c-1.125-0.316-2.307-0.475-3.545-0.475h-3.488V151.254z"/>
	<path fill="#3A3A3A" d="M346.896,129.871h18.235v5.459H352.81v5.005h11.64v5.459h-11.64v5.46h13.004v5.459h-18.918V129.871z"/>
	<path fill="#3A3A3A" d="M372.449,129.871h10.388c1.365,0,2.66,0.133,3.887,0.398c1.226,0.265,2.299,0.708,3.222,1.327
		s1.655,1.453,2.199,2.502c0.543,1.049,0.815,2.356,0.815,3.924c0,1.896-0.493,3.507-1.479,4.834
		c-0.986,1.326-2.427,2.167-4.322,2.521l6.824,11.336h-7.09l-5.61-10.729h-2.92v10.729h-5.914V129.871z M378.363,140.979h3.488
		c0.531,0,1.093-0.019,1.688-0.057c0.593-0.038,1.131-0.152,1.611-0.342c0.479-0.189,0.877-0.486,1.193-0.891
		s0.475-0.973,0.475-1.706c0-0.683-0.14-1.226-0.417-1.63c-0.278-0.404-0.633-0.714-1.062-0.929
		c-0.431-0.215-0.923-0.36-1.479-0.437c-0.557-0.076-1.1-0.113-1.631-0.113h-3.867V140.979z"/>
	<path fill="#3A3A3A" d="M412.18,136.43c-0.48-0.606-1.132-1.055-1.952-1.346c-0.822-0.29-1.6-0.436-2.332-0.436
		c-0.43,0-0.872,0.051-1.327,0.151c-0.455,0.102-0.885,0.26-1.289,0.474c-0.404,0.215-0.733,0.5-0.985,0.854
		c-0.253,0.354-0.379,0.783-0.379,1.289c0,0.809,0.303,1.428,0.909,1.857c0.607,0.43,1.371,0.796,2.294,1.1
		c0.923,0.303,1.915,0.606,2.977,0.909c1.062,0.304,2.053,0.733,2.976,1.289c0.923,0.557,1.688,1.303,2.294,2.237
		c0.606,0.936,0.91,2.187,0.91,3.753c0,1.492-0.279,2.793-0.834,3.905c-0.557,1.112-1.309,2.035-2.256,2.768
		c-0.948,0.733-2.048,1.276-3.299,1.63s-2.572,0.531-3.962,0.531c-1.744,0-3.361-0.266-4.853-0.796
		c-1.491-0.531-2.881-1.391-4.17-2.578l4.208-4.626c0.606,0.81,1.37,1.436,2.294,1.877c0.922,0.442,1.876,0.663,2.862,0.663
		c0.479,0,0.967-0.057,1.459-0.17c0.493-0.114,0.935-0.284,1.327-0.512c0.392-0.228,0.707-0.519,0.948-0.872
		c0.239-0.354,0.359-0.771,0.359-1.251c0-0.809-0.31-1.447-0.929-1.915c-0.619-0.467-1.396-0.865-2.331-1.194
		c-0.936-0.328-1.947-0.656-3.033-0.985c-1.087-0.328-2.099-0.771-3.033-1.327c-0.936-0.556-1.712-1.289-2.331-2.199
		c-0.62-0.909-0.929-2.109-0.929-3.602c0-1.44,0.284-2.704,0.853-3.791c0.568-1.086,1.327-1.996,2.274-2.729
		c0.948-0.732,2.041-1.282,3.279-1.649c1.238-0.366,2.515-0.55,3.829-0.55c1.517,0,2.982,0.216,4.398,0.645
		c1.415,0.431,2.691,1.15,3.829,2.161L412.18,136.43z"/>
</g>
</svg>
